<?xml version="1.0" standalone="no"?>
<!DOCTYPE svg PUBLIC "-//W3C//DTD SVG 20010904//EN"
 "http://www.w3.org/TR/2001/REC-SVG-20010904/DTD/svg10.dtd">
<svg version="1.0" xmlns="http://www.w3.org/2000/svg"
 width="200.000000pt" height="200.000000pt" viewBox="0 0 200.000000 200.000000"
 preserveAspectRatio="xMidYMid meet">

<g transform="translate(0.000000,200.000000) scale(0.100000,-0.100000)"
fill="#000000" stroke="none">
<path d="M911 1335 c1 -19 18 -51 18 -35 0 8 -4 22 -9 30 -5 8 -9 11 -9 5z"/>
<path d="M1106 1325 c-9 -26 -7 -32 5 -12 6 10 9 21 6 23 -2 3 -7 -2 -11 -11z"/>
<path d="M850 1305 c0 -5 5 -17 10 -25 5 -8 10 -10 10 -5 0 6 -5 17 -10 25 -5
8 -10 11 -10 5z"/>
<path d="M1166 1295 c-9 -26 -7 -32 5 -12 6 10 9 21 6 23 -2 3 -7 -2 -11 -11z"/>
<path d="M789 1263 c12 -24 31 -39 31 -25 0 5 -10 17 -21 28 -22 19 -22 19
-10 -3z"/>
<path d="M1215 1250 c-10 -11 -14 -20 -9 -20 5 0 15 9 22 20 7 11 11 20 9 20
-2 0 -12 -9 -22 -20z"/>
<path d="M440 1252 c0 -7 -10 -17 -22 -23 l-23 -10 23 5 c17 3 22 -1 22 -15 0
-11 -10 -24 -22 -30 l-23 -10 23 5 c16 3 22 -1 22 -13 0 -10 -10 -23 -22 -30
l-23 -11 23 6 c15 4 22 1 22 -9 0 -17 -18 -33 -45 -40 -20 -5 -20 -5 1 -6 11
0 25 4 32 11 9 9 12 -19 14 -128 1 -76 3 -113 5 -80 4 57 4 58 31 53 15 -3 36
-9 47 -12 14 -5 16 -4 6 3 -11 8 -10 14 4 38 l18 29 -24 -27 c-19 -21 -30 -26
-51 -21 -34 7 -36 30 -4 43 26 9 44 30 27 30 -6 0 -11 -4 -11 -10 0 -5 -9 -10
-20 -10 -11 0 -20 3 -20 8 0 8 150 95 155 90 9 -8 -38 -66 -49 -62 -7 3 -19
-3 -26 -13 -12 -15 -12 -16 0 -5 20 17 33 15 26 -5 -3 -10 7 -3 23 16 20 24
30 30 33 20 4 -12 7 -12 20 -1 12 9 18 10 23 2 5 -8 10 -8 20 0 10 8 15 8 20
0 4 -6 12 -9 18 -7 7 2 21 -9 33 -24 21 -29 34 -29 34 0 0 13 -2 13 -9 2 -6
-9 -23 8 -62 63 -50 73 -54 76 -69 58 -13 -17 -171 -112 -185 -112 -3 0 -5 13
-5 30 0 28 2 29 33 25 25 -4 27 -3 8 3 -32 10 -51 40 -32 51 9 6 10 11 2 15
-22 14 -12 33 17 30 26 -4 26 -3 2 4 -33 11 -40 42 -8 43 14 0 17 3 8 6 -8 3
-21 12 -27 21 -8 10 -13 11 -13 4z m270 -202 c0 -13 -2 -13 -9 -1 -8 12 -12
12 -25 2 -11 -9 -16 -10 -16 -2 0 6 -7 11 -15 11 -8 0 -15 -5 -15 -11 0 -5 -4
-7 -10 -4 -5 3 -9 17 -8 30 1 13 6 22 10 19 4 -3 12 5 19 18 12 21 12 21 40
-13 16 -19 29 -41 29 -49z"/>
<path d="M1541 1246 c-9 -11 -9 -15 1 -19 11 -4 11 -9 0 -27 -9 -14 -9 -20 -2
-15 8 5 11 0 8 -16 -2 -14 -12 -26 -28 -31 -24 -7 -24 -8 3 -4 34 4 36 -16 5
-39 l-23 -17 23 7 c20 6 22 3 22 -29 0 -20 -2 -36 -5 -36 -13 0 -171 103 -178
117 -7 11 -22 -5 -62 -62 -40 -58 -54 -72 -58 -58 -3 11 -5 6 -6 -12 l0 -30
20 24 c29 35 64 52 79 37 9 -8 14 -8 17 2 4 10 8 10 20 1 11 -10 16 -10 22 0
6 9 19 -2 43 -36 19 -26 38 -53 42 -60 4 -7 -20 -24 -66 -47 -84 -40 -146 -90
-188 -151 l-30 -44 -78 -4 c-42 -1 30 -4 161 -5 130 -1 237 -5 237 -9 0 -5
-11 -26 -23 -48 -20 -35 -28 -40 -56 -38 -18 0 -41 9 -51 18 -18 17 -21 16
-50 -9 -18 -14 -41 -28 -53 -31 -12 -2 -31 -6 -42 -8 -14 -3 -12 -5 8 -6 31
-1 76 19 97 44 11 14 15 14 35 1 12 -8 37 -19 55 -23 l32 -9 -55 -58 c-55 -58
-56 -59 -103 -53 -28 3 -41 1 -33 -4 8 -5 28 -9 44 -9 26 -1 28 -2 12 -11 -23
-14 -75 -4 -99 18 -10 9 -18 11 -18 6 0 -11 59 -43 82 -43 16 -1 -30 -27 -102
-57 -30 -12 -48 -23 -39 -23 41 0 180 82 239 142 65 66 135 191 147 261 6 37
5 37 -20 28 -13 -5 -34 -7 -46 -4 -14 3 -23 0 -27 -11 -3 -9 -11 -13 -17 -9
-6 3 -20 -6 -32 -21 -19 -24 -27 -27 -71 -24 l-49 3 52 52 c28 29 44 50 35 47
-14 -5 -13 -3 2 10 11 9 14 16 7 16 -7 0 -9 5 -5 13 5 6 -3 4 -16 -5 -14 -9
-24 -21 -23 -27 2 -6 -3 -8 -11 -5 -13 5 -86 -73 -86 -91 0 -5 7 0 15 11 8 10
15 14 15 7 0 -13 -17 -26 -37 -29 -20 -3 -15 10 22 58 40 53 132 118 204 143
l50 18 -31 44 c-16 25 -28 47 -25 49 3 3 26 -4 51 -16 48 -21 63 -54 29 -63
-17 -4 -17 -5 -1 -6 14 -1 18 -14 21 -73 1 -40 4 -5 5 78 l2 151 28 -2 c15 -2
18 0 7 2 -38 9 -50 54 -12 47 l22 -5 -22 10 c-24 11 -32 41 -11 41 9 0 9 3 0
12 -19 19 -14 38 11 39 20 1 20 2 2 6 -11 3 -23 10 -26 15 -3 5 -11 2 -18 -6z
m-141 -183 c0 -6 -4 -15 -10 -18 -5 -3 -10 -1 -10 4 0 6 -7 11 -15 11 -8 0
-15 -6 -15 -12 0 -9 -3 -9 -9 1 -8 12 -12 12 -25 2 -23 -20 -20 -6 11 40 l27
41 23 -28 c13 -16 23 -34 23 -41z m77 -14 c77 -47 78 -47 72 -53 -2 -3 -22 4
-44 14 -22 11 -47 19 -55 20 -14 0 -59 60 -46 60 3 0 36 -19 73 -41z m-112
-229 c-3 -5 -11 -10 -16 -10 -6 0 -7 5 -4 10 3 6 11 10 16 10 6 0 7 -4 4 -10z
m-33 -50 c-15 -14 -35 -36 -44 -50 l-16 -25 2 28 c3 34 38 73 66 73 18 0 17
-3 -8 -26z"/>
<path d="M1299 763 l-24 -28 28 24 c15 14 27 26 27 28 0 8 -8 1 -31 -24z"/>
<path d="M930 1237 c-36 -11 -140 -106 -140 -128 0 -7 13 6 29 28 65 90 160
122 264 91 39 -12 106 -68 135 -113 7 -11 6 -6 -3 11 -20 43 -86 98 -134 112
-46 14 -104 14 -151 -1z"/>
<path d="M734 1221 c7 -11 46 -35 46 -28 0 3 -12 12 -26 22 -15 9 -23 12 -20
6z"/>
<path d="M1250 1199 c-22 -18 -22 -19 -3 -10 12 6 25 16 28 21 9 15 3 12 -25
-11z"/>
<path d="M884 1129 c-10 -17 13 -36 27 -22 12 12 4 33 -11 33 -5 0 -12 -5 -16
-11z"/>
<path d="M1094 1129 c-10 -17 13 -36 27 -22 12 12 4 33 -11 33 -5 0 -12 -5
-16 -11z"/>
<path d="M946 1057 c-27 -27 -34 -69 -17 -96 7 -10 2 -24 -15 -44 -16 -19 -24
-41 -24 -67 0 -35 3 -40 51 -65 54 -28 96 -28 120 1 6 8 19 14 29 14 32 0 40
52 15 100 -15 30 -48 40 -60 20 -3 -5 -19 -10 -36 -10 -22 0 -34 8 -49 32 -21
34 -19 65 7 106 21 34 9 39 -21 9z"/>
<path d="M1060 1005 c0 -8 5 -15 10 -15 6 0 10 7 10 15 0 8 -4 15 -10 15 -5 0
-10 -7 -10 -15z"/>
<path d="M792 948 c5 -15 28 -18 29 -3 0 6 -7 12 -17 13 -10 3 -15 -1 -12 -10z"/>
<path d="M1185 951 c-7 -12 12 -24 25 -16 11 7 4 25 -10 25 -5 0 -11 -4 -15
-9z"/>
<path d="M593 884 c27 -14 47 -28 44 -30 -3 -3 -19 2 -36 11 -17 8 -31 13 -31
10 0 -2 18 -14 40 -25 39 -20 56 -38 24 -26 -8 3 -12 2 -9 -4 3 -6 1 -10 -6
-10 -7 0 6 -13 29 -30 36 -26 62 -57 62 -74 0 -3 -22 -6 -50 -6 -27 0 -50 4
-50 9 0 16 -32 42 -45 37 -8 -3 -16 2 -19 11 -4 9 -13 13 -22 9 -23 -9 -62 4
-68 22 -3 10 -3 -2 0 -26 2 -24 11 -58 19 -75 9 -18 13 -24 10 -14 -4 16 13
17 243 19 136 1 208 4 160 5 -86 4 -87 4 -107 36 -11 18 -37 49 -58 69 -39 38
-149 108 -167 108 -6 -1 11 -12 37 -26z m113 -78 c46 -41 110 -129 72 -98 -13
10 -17 10 -22 0 -3 -7 -4 -4 -1 8 3 12 -1 27 -10 34 -8 7 -15 9 -15 4 0 -4
-11 3 -25 16 -13 12 -22 26 -20 31 3 4 -7 17 -22 28 -16 11 -23 21 -17 21 7 0
34 -20 60 -44z m-32 5 c4 -5 1 -11 -4 -13 -6 -2 8 -21 30 -43 28 -27 39 -33
34 -20 -5 16 -4 18 6 8 7 -7 9 -17 4 -25 -7 -12 -20 -3 -60 38 -45 47 -50 60
-22 63 4 1 9 -3 12 -8z"/>
<path d="M705 780 c10 -11 20 -20 23 -20 3 0 -3 9 -13 20 -10 11 -20 20 -23
20 -3 0 3 -9 13 -20z"/>
<path d="M1404 864 c-18 -14 -18 -15 4 -4 12 6 22 13 22 15 0 8 -5 6 -26 -11z"/>
<path d="M998 693 c6 -2 18 -2 25 0 6 3 1 5 -13 5 -14 0 -19 -2 -12 -5z"/>
<path d="M1114 608 c-11 -11 -32 -27 -49 -34 -16 -7 -24 -13 -16 -14 18 0 81
39 81 51 0 4 16 -3 36 -16 20 -14 42 -25 48 -25 6 0 2 6 -9 12 -11 6 -32 19
-46 29 -26 18 -27 18 -45 -3z"/>
<path d="M614 598 l-19 -23 22 19 c22 18 23 18 49 -3 15 -12 34 -21 43 -21 9
1 2 7 -15 14 -18 8 -35 19 -38 25 -10 16 -21 14 -42 -11z"/>
<path d="M853 599 c-18 -11 -54 -24 -80 -29 -44 -7 -45 -8 -12 -9 19 0 56 9
80 22 l45 22 33 -22 c19 -13 41 -23 50 -23 9 1 0 8 -19 16 -19 8 -41 21 -50
29 -13 12 -20 11 -47 -6z"/>
<path d="M527 580 c28 -53 133 -152 200 -188 34 -17 65 -32 69 -32 5 1 -13 13
-41 27 -27 14 -61 34 -74 44 l-24 19 31 0 c18 0 42 10 59 24 l28 24 30 -24
c17 -13 37 -24 45 -24 8 0 0 8 -18 17 -18 9 -37 24 -42 34 -9 16 -12 15 -39
-12 -23 -22 -39 -29 -70 -29 -35 0 -46 6 -86 47 -25 26 -45 51 -45 55 0 3 10
9 23 11 18 3 17 5 -7 6 -16 0 -35 9 -43 19 -8 9 -6 1 4 -18z"/>
<path d="M674 556 c11 -9 27 -16 35 -15 14 0 14 1 1 6 -8 3 -24 10 -35 15 -20
9 -20 9 -1 -6z"/>
<path d="M910 565 c0 -13 71 -35 107 -34 35 1 34 2 -13 9 -28 4 -60 13 -72 19
-12 6 -22 9 -22 6z"/>
<path d="M1170 560 c8 -5 20 -10 25 -10 6 0 3 5 -5 10 -8 5 -19 10 -25 10 -5
0 -3 -5 5 -10z"/>
<path d="M805 550 c-13 -6 -15 -9 -5 -9 8 0 22 4 30 9 18 12 2 12 -25 0z"/>
<path d="M1070 550 c-8 -5 -10 -10 -5 -10 6 0 17 5 25 10 8 5 11 10 5 10 -5 0
-17 -5 -25 -10z"/>
<path d="M1300 550 c-21 -7 -21 -8 -5 -9 11 0 27 4 35 9 18 11 5 11 -30 0z"/>
<path d="M1218 543 c6 -2 18 -2 25 0 6 3 1 5 -13 5 -14 0 -19 -2 -12 -5z"/>
<path d="M748 533 c6 -2 18 -2 25 0 6 3 1 5 -13 5 -14 0 -19 -2 -12 -5z"/>
<path d="M989 504 c-8 -10 -27 -25 -44 -36 -16 -10 -25 -18 -20 -18 6 0 26 11
45 23 l34 24 34 -24 c25 -17 47 -23 81 -22 l46 2 -52 6 c-38 5 -60 14 -81 34
-27 26 -30 27 -43 11z"/>
<path d="M1198 489 c-15 -16 -23 -29 -19 -29 4 0 16 9 26 20 17 19 19 19 38 3
20 -18 20 -18 2 10 -9 15 -18 26 -19 26 0 -1 -13 -14 -28 -30z"/>
<path d="M735 449 c-16 -10 -25 -19 -19 -19 7 0 22 9 35 20 30 24 23 24 -16
-1z"/>
<path d="M813 438 c11 -10 27 -18 36 -17 10 0 7 4 -8 10 -14 5 -30 13 -36 17
-6 4 -2 -1 8 -10z"/>
<path d="M1043 438 c11 -10 27 -18 36 -17 10 0 7 4 -8 10 -14 5 -30 13 -36 17
-6 4 -2 -1 8 -10z"/>
<path d="M878 443 c6 -2 18 -2 25 0 6 3 1 5 -13 5 -14 0 -19 -2 -12 -5z"/>
<path d="M925 435 c-16 -8 -23 -14 -15 -14 8 0 26 6 40 14 32 18 15 18 -25 0z"/>
<path d="M1155 430 c-16 -7 -17 -9 -3 -9 9 -1 20 4 23 9 7 11 7 11 -20 0z"/>
<path d="M820 351 c8 -5 33 -12 55 -15 28 -4 33 -3 15 2 -46 16 -86 23 -70 13z"/>
<path d="M1108 333 c6 -2 18 -2 25 0 6 3 1 5 -13 5 -14 0 -19 -2 -12 -5z"/>
<path d="M968 323 c23 -2 61 -2 85 0 23 2 4 4 -43 4 -47 0 -66 -2 -42 -4z"/>
</g>
</svg>
